<svg xmlns="http://www.w3.org/2000/svg" width="948" height="129" viewBox="0 0 948 129" version="1.1"><path d="M 76.521 2.388 C 75.207 3.702, 73.845 6.289, 73.494 8.138 L 72.855 11.500 63.177 13.826 C 43.181 18.633, 24.726 27.647, 13.628 38.029 L 7.312 43.937 4.011 50.131 L 0.710 56.325 0.256 62.912 L -0.198 69.500 1.973 75.252 C 4.663 82.375, 10.293 89.612, 17.781 95.570 C 23.393 100.036, 45.579 111.754, 46.562 110.772 C 46.837 110.497, 47.460 108.882, 47.947 107.184 L 48.833 104.097 43.287 100.967 C 40.238 99.246, 35.522 95.618, 32.809 92.904 L 27.876 87.972 25.431 82.630 C 24.086 79.692, 22.500 74.664, 21.907 71.456 L 20.829 65.625 21.488 61.229 C 23.747 46.169, 33.368 34.400, 50.493 25.749 C 56.840 22.543, 70.068 17.735, 70.727 18.394 C 70.942 18.608, 65.657 42.570, 58.984 71.642 L 46.852 124.500 44.752 126.750 L 42.651 129 58.303 129 L 73.954 129 75.450 126.717 C 76.272 125.462, 83.193 97.265, 90.830 64.058 L 104.714 3.682 106.357 2.481 C 107.261 1.820, 108 0.992, 108 0.640 C 108 0.288, 101.455 0, 93.455 0 L 78.909 0 76.521 2.388 M 117.045 1.762 L 114.869 3.525 101.454 62.012 C 94.076 94.181, 87.794 121.524, 87.494 122.775 C 87.195 124.027, 86.061 125.939, 84.975 127.025 L 83 129 98.345 129 L 113.690 129 115.353 127.163 L 117.016 125.325 130.589 65.913 L 144.162 6.500 146.081 3.790 C 147.136 2.300, 148 0.838, 148 0.540 C 148 0.243, 141.525 0, 133.611 0 L 119.222 0 117.045 1.762 M 157.201 2.028 C 156.004 3.143, 154.783 5.055, 154.488 6.278 C 154.193 7.500, 147.909 34.825, 140.523 67 L 127.093 125.500 124.936 127.250 L 122.778 129 138.234 129 L 153.690 129 155.393 127.118 C 156.330 126.083, 157.537 123.638, 158.077 121.683 L 159.058 118.130 164.637 116.972 C 172.003 115.442, 186.501 110.589, 194.725 106.899 C 208.892 100.543, 223.028 88.689, 228.048 78.955 L 230.345 74.500 230.799 66.228 L 231.253 57.956 228.183 51.728 L 225.114 45.500 219.899 40.180 C 217.031 37.254, 211.998 33.036, 208.716 30.807 C 201.336 25.796, 185.973 18.599, 184.987 19.693 C 184.586 20.137, 183.982 21.678, 183.644 23.117 L 183.029 25.733 188.826 29.312 C 196.356 33.960, 203.502 41.670, 206.648 48.542 L 209.156 54.020 209.707 61.310 L 210.258 68.599 208.538 74.518 C 206.407 81.849, 201.248 89.759, 195.145 95.054 C 189.940 99.570, 173.228 108.162, 165.309 110.394 L 160.118 111.857 160.538 110.679 C 160.769 110.030, 166.360 85.912, 172.963 57.081 L 184.968 4.663 187.159 2.331 L 189.349 -0 174.363 -0 L 159.377 -0 157.201 2.028" stroke="none" fill="#d4040c" fill-rule="evenodd"/><path d="M 513 21.500 L 513 33 504.500 33 L 496 33 496 40.500 L 496 48 504.500 48 L 513 48 513 59 L 513 70 522 70 L 531 70 531 40 L 531 10 522 10 L 513 10 513 21.500 M 578.500 11.344 C 569.172 14.422, 562.127 20.305, 558.636 27.930 L 556.543 32.500 556.603 39.500 L 556.663 46.500 558.255 50.190 C 559.131 52.219, 561.683 55.870, 563.926 58.304 L 568.005 62.729 574.253 65.600 L 580.500 68.471 590.500 68.480 L 600.500 68.489 606.500 65.692 C 617.284 60.666, 623.678 52.519, 624.713 42.489 L 625.256 37.234 624.076 32.315 L 622.896 27.396 619.160 22.448 L 615.425 17.500 608.626 14.032 L 601.827 10.564 592.163 10.294 L 582.500 10.023 578.500 11.344 M 721 41.472 L 721 72.944 715.750 74.424 C 712.862 75.238, 708.769 76.209, 706.653 76.582 L 702.805 77.259 703.377 69.880 C 703.691 65.821, 704.223 57.438, 704.559 51.250 L 705.169 40 696.729 40 L 688.289 40 687.652 46.750 C 687.301 50.463, 687.007 56.650, 686.998 60.500 C 686.990 64.350, 686.699 69.862, 686.352 72.750 L 685.721 78 680.361 78 L 675 78 675 71.157 C 675 67.393, 674.706 58.843, 674.346 52.157 L 673.693 40 665.261 40 L 656.829 40 657.552 59 L 658.275 78 651.638 78 L 645 78 645 85.584 L 645 93.168 677.250 92.731 L 709.500 92.294 715.250 90.778 L 721 89.263 721 106.131 L 721 123 730 123 L 739 123 739 66.500 L 739 10 730 10 L 721 10 721 41.472 M 826 22.500 L 826 35 823.500 35 L 821 35 821 23 L 821 11 812.500 11 L 804 11 804 48 L 804 85 812.500 85 L 821 85 821 68 L 821 51 823.500 51 L 826 51 826 68.500 L 826 86 834.500 86 L 843 86 843 48 L 843 10 834.500 10 L 826 10 826 22.500 M 931.242 66.250 L 931.500 122.500 939.750 122.790 L 948 123.081 948 66.540 L 948 10 939.492 10 L 930.983 10 931.242 66.250 M 286.874 15.750 L 279.542 19.500 273.409 25.500 L 267.276 31.500 264.129 37.740 C 262.398 41.172, 260.317 46.797, 259.506 50.240 L 258.030 56.500 258.030 66.500 L 258.030 76.500 259.537 82.897 C 260.367 86.415, 262.647 92.342, 264.605 96.067 L 268.164 102.840 274.332 108.745 C 280.775 114.912, 287.577 119.390, 292.250 120.540 L 295 121.217 294.962 112.858 L 294.924 104.500 289.587 100.796 L 284.249 97.092 281.086 92.315 C 279.346 89.689, 277.216 85.109, 276.352 82.140 L 274.783 76.740 274.813 67.120 L 274.844 57.500 276.949 50.792 C 279.410 42.950, 283.715 36.887, 290.291 32.002 L 295 28.504 295 20.252 C 295 15.713, 294.821 12, 294.603 12 C 294.384 12, 290.906 13.688, 286.874 15.750 M 399 20.359 L 399 28.615 403.512 31.795 C 408.645 35.413, 413.609 41.979, 416.387 48.824 L 418.285 53.500 418.762 64.583 L 419.239 75.666 417.559 81.583 C 415.370 89.292, 410.268 96.634, 404.066 101 L 399.094 104.500 399.047 112.858 L 399 121.217 401.750 120.550 C 406.757 119.334, 415.120 113.587, 421.006 107.314 L 426.811 101.128 429.884 94.814 C 431.574 91.341, 433.641 85.818, 434.478 82.540 L 436 76.580 435.985 66.540 L 435.970 56.500 434.492 50.231 C 432.686 42.568, 429.442 36.003, 424.159 29.320 L 420.158 24.259 413.329 19.734 C 409.573 17.246, 404.813 14.511, 402.750 13.656 L 399 12.102 399 20.359 M 308 22 L 308 30 322.500 30 L 337 30 337 31.132 C 337 33.200, 333.014 38.752, 329.734 41.253 C 324.731 45.069, 314.818 49.771, 307.832 51.642 C 304.349 52.575, 301.163 53.622, 300.750 53.969 C 300.338 54.316, 302.005 57.355, 304.455 60.722 L 308.909 66.844 314.934 65.438 C 327.012 62.621, 335.788 58.195, 343.210 51.179 L 346.920 47.672 351.273 51.684 C 358.627 58.463, 370.478 64.174, 381.593 66.297 L 384.686 66.887 388.843 60.992 C 391.129 57.750, 393 54.719, 393 54.255 C 393 53.792, 390.565 52.902, 387.589 52.278 C 379.928 50.671, 368.047 44.941, 363.089 40.461 C 359.451 37.175, 356 32.349, 356 30.550 C 356 30.247, 362.750 30, 371 30 L 386 30 386 22 L 386 14 347 14 L 308 14 308 22 M 442 22 L 442 30 452.448 30 L 462.896 30 461.781 33.250 C 459.193 40.789, 449.695 51.261, 440.878 56.295 C 438.754 57.508, 437.012 58.965, 437.008 59.534 C 437.003 60.103, 439.388 62.927, 442.307 65.809 L 447.613 71.050 454.057 66.887 C 457.600 64.598, 463.224 59.949, 466.553 56.555 L 472.605 50.386 478.208 55.943 C 483.604 61.294, 493.477 68.060, 496.323 68.357 C 497.078 68.436, 499.772 65.964, 502.310 62.864 L 506.923 57.229 500.712 53.211 C 492.382 47.823, 486.260 41.560, 483.399 35.500 L 481.039 30.500 491.519 30.216 L 502 29.932 502 21.966 L 502 14 472 14 L 442 14 442 22 M 763.459 16.367 C 757.903 18.954, 753.655 23.385, 750.867 29.500 L 749.044 33.500 749.032 41.500 L 749.020 49.500 751.351 54.507 C 753.891 59.962, 759.463 65.460, 764.645 67.625 L 767.936 69 775.272 69 L 782.607 69 787.771 66.427 L 792.935 63.854 796 59.685 C 801.781 51.824, 803.349 41.919, 800.392 31.932 L 798.785 26.500 793.642 21.360 L 788.500 16.219 784.500 15.115 C 782.300 14.508, 777.800 14.013, 774.500 14.015 L 768.500 14.020 763.459 16.367 M 866.741 36.750 L 866.233 54.500 864.505 60 C 862.241 67.205, 858.964 73.585, 854.565 79.346 C 852.604 81.915, 851 84.439, 851 84.954 C 851 85.469, 853.584 87.741, 856.743 90.002 L 862.486 94.115 865.493 90.453 C 867.147 88.438, 870.131 84.149, 872.124 80.922 L 875.749 75.053 879.296 80.777 C 881.248 83.924, 884.483 88.075, 886.486 90 L 890.129 93.500 893.131 90 C 894.781 88.075, 897.826 83.961, 899.897 80.857 L 903.661 75.214 906.991 80.782 C 908.823 83.845, 911.872 88.066, 913.766 90.163 L 917.210 93.975 922.605 89.366 C 925.572 86.831, 928 84.431, 928 84.032 C 928 83.633, 925.542 79.634, 922.538 75.146 L 917.076 66.985 915.038 60.387 L 913 53.789 913 36.395 L 913 19 904.500 19 L 896 19 896 35.895 L 896 52.789 894.033 59.159 C 892.951 62.662, 891.431 66.395, 890.657 67.455 L 889.248 69.381 887.624 66.240 C 886.731 64.513, 885.332 60.264, 884.515 56.800 L 883.030 50.500 883.015 34.750 L 883 19 875.124 19 L 867.248 19 866.741 36.750 M 648 27.500 L 648 35 680.500 35 L 713 35 713 27.500 L 713 20 680.500 20 L 648 20 648 27.500 M 582.071 26.752 C 580.185 27.713, 577.710 29.772, 576.571 31.326 L 574.500 34.152 574.554 39.326 L 574.609 44.500 576.453 47.301 C 578.812 50.885, 582.861 52.959, 588.889 53.673 L 593.670 54.240 598.308 52.188 L 602.947 50.136 605.029 46.818 L 607.111 43.500 606.723 38.242 L 606.334 32.985 603.917 30.363 C 600.647 26.817, 596.025 25, 590.282 25.002 L 585.500 25.003 582.071 26.752 M 770.304 30.956 L 767.109 32.904 765.925 36.856 L 764.741 40.807 765.415 44.400 C 765.786 46.375, 767.082 49.134, 768.295 50.530 L 770.500 53.068 774.223 53.660 L 777.947 54.253 781.473 50.727 L 785 47.200 785 41.500 L 785 35.800 781.600 32.400 L 778.200 29 775.850 29.004 C 774.558 29.006, 772.062 29.884, 770.304 30.956 M 482.500 73.441 L 476.500 75.949 471.845 80.800 L 467.190 85.652 466.101 89.576 C 464.672 94.721, 464.713 100.296, 466.216 105.384 L 467.432 109.500 472.498 114.597 L 477.564 119.694 483.032 121.597 L 488.500 123.500 497.500 123.477 L 506.500 123.453 512.500 120.670 C 522.570 115.999, 527.545 109.633, 528.692 99.955 L 529.273 95.047 527.992 90.471 L 526.710 85.894 522.385 81.083 L 518.059 76.272 512.779 73.952 L 507.500 71.632 498 71.283 L 488.500 70.933 482.500 73.441 M 295 82 L 295 90 316.500 90 L 338 90 338 106.500 L 338 123 347 123 L 356 123 356 106.500 L 356 90 377.500 90 L 399 90 399 82 L 399 74 347 74 L 295 74 295 82 M 538 83 L 538 91 559.475 91 L 580.949 91 581.225 106.750 L 581.500 122.500 590.500 122.500 L 599.500 122.500 599.775 106.750 L 600.051 91 621.525 91 L 643 91 643 83 L 643 75 590.500 75 L 538 75 538 83 M 768 95.423 L 768 111.846 770.944 114.790 L 773.888 117.734 778.387 118.867 L 782.886 120 813.443 120 L 844 120 844 112.015 L 844 104.030 814.750 103.765 L 785.500 103.500 785.219 91.250 L 784.938 79 776.469 79 L 768 79 768 95.423 M 489.119 86.885 C 484.877 89.145, 483.081 92.331, 483.035 97.673 L 483 101.847 485.486 104.801 L 487.972 107.756 492.466 108.887 L 496.961 110.019 501.230 109.063 L 505.500 108.108 508.250 105.038 L 511 101.968 511 97.935 C 511 89.792, 505.693 84.957, 496.849 85.042 L 492.500 85.084 489.119 86.885" stroke="none" fill="#0c247c" fill-rule="evenodd"/></svg>