<svg xmlns="http://www.w3.org/2000/svg" width="333" height="196" viewBox="0 0 333 196" version="1.1"><path d="M 116.068 22.750 L 113.914 24.500 112.647 29.481 L 111.379 34.462 98.939 37.609 C 70.341 44.842, 48.711 56.059, 34.760 70.892 C 14.588 92.337, 17.809 116.861, 43.511 137.522 L 50.500 143.139 63.443 149.570 C 70.562 153.106, 76.924 156, 77.582 156 C 78.239 156, 79.092 154.326, 79.475 152.279 L 80.174 148.558 79.005 148.168 C 78.363 147.954, 74.515 145.557, 70.455 142.841 C 61.441 136.812, 55.054 129.528, 50.777 120.397 L 47.546 113.500 47.523 101 L 47.500 88.500 51.098 81 C 57.145 68.397, 67.572 58.703, 83.846 50.556 C 90.619 47.165, 108.901 40.568, 109.597 41.263 C 109.762 41.429, 109.466 43.350, 108.938 45.532 C 108.411 47.715, 101.488 77.782, 93.555 112.348 L 79.132 175.197 77.411 177.098 L 75.690 179 93.860 179 L 112.029 179 113.793 176.101 L 115.556 173.201 132.336 99.851 L 149.115 26.500 151.088 23.750 L 153.060 21 135.641 21 L 118.222 21 116.068 22.750 M 165.807 22.750 C 164.981 23.712, 164.032 24.986, 163.699 25.579 C 163.366 26.173, 155.634 59.248, 146.517 99.079 C 137.401 138.911, 129.446 172.748, 128.840 174.274 C 128.234 175.799, 127.009 177.473, 126.119 177.993 L 124.500 178.939 142.316 178.970 L 160.131 179 161.929 178.038 C 162.917 177.509, 164.211 175.822, 164.805 174.288 C 165.398 172.755, 173.380 138.650, 182.542 98.500 L 199.201 25.500 201.275 23.250 L 203.349 21 185.329 21 L 167.310 21 165.807 22.750 M 215.248 23.250 L 213.148 25.500 198.030 91.500 C 189.715 127.800, 182.008 161.378, 180.904 166.117 L 178.896 174.735 176.909 176.867 L 174.922 179 192.787 179 L 210.651 179 212.765 176.750 C 213.927 175.512, 215.316 172.552, 215.850 170.172 C 216.385 167.792, 216.975 165.763, 217.161 165.663 C 217.348 165.563, 223.265 164.023, 230.311 162.241 C 268.002 152.705, 296.225 133.932, 304.045 113.196 L 306.193 107.500 306.207 100.324 L 306.222 93.149 304.426 88.324 C 298.632 72.767, 283.122 58.713, 260.503 48.526 L 250.554 44.046 249.912 45.273 C 249.559 45.948, 248.995 47.661, 248.659 49.079 L 248.048 51.658 252.274 53.993 C 254.598 55.277, 259.288 58.523, 262.696 61.207 L 268.892 66.086 272.937 72.143 C 275.161 75.475, 277.886 81.128, 278.991 84.705 L 281 91.211 281 99.424 L 281 107.637 279.454 112.844 C 273.906 131.526, 255.118 147.322, 228 156.106 L 219.500 158.859 219.236 157.679 C 218.785 155.663, 248.953 25.767, 250.263 24.087 C 250.943 23.214, 251.950 22.169, 252.500 21.765 C 253.050 21.361, 245.366 21.024, 235.424 21.015 L 217.349 21 215.248 23.250" stroke="none" fill="#d40615" fill-rule="evenodd"/><path d="M -0 98.003 L -0 196.006 166.750 195.753 L 333.500 195.500 333.755 97.750 L 334.010 0 167.005 0 L 0 0 -0 98.003 M 0.481 98.500 C 0.481 152.400, 0.602 174.303, 0.750 147.174 C 0.898 120.045, 0.898 75.945, 0.750 49.174 C 0.602 22.403, 0.481 44.600, 0.481 98.500 M 116.068 22.750 L 113.914 24.500 112.647 29.481 L 111.379 34.462 98.939 37.609 C 70.341 44.842, 48.711 56.059, 34.760 70.892 C 14.588 92.337, 17.809 116.861, 43.511 137.522 L 50.500 143.139 63.443 149.570 C 70.562 153.106, 76.924 156, 77.582 156 C 78.239 156, 79.092 154.326, 79.475 152.279 L 80.174 148.558 79.005 148.168 C 78.363 147.954, 74.515 145.557, 70.455 142.841 C 61.441 136.812, 55.054 129.528, 50.777 120.397 L 47.546 113.500 47.523 101 L 47.500 88.500 51.098 81 C 57.145 68.397, 67.572 58.703, 83.846 50.556 C 90.619 47.165, 108.901 40.568, 109.597 41.263 C 109.762 41.429, 109.466 43.350, 108.938 45.532 C 108.411 47.715, 101.488 77.782, 93.555 112.348 L 79.132 175.197 77.411 177.098 L 75.690 179 93.860 179 L 112.029 179 113.793 176.101 L 115.556 173.201 132.336 99.851 L 149.115 26.500 151.088 23.750 L 153.060 21 135.641 21 L 118.222 21 116.068 22.750 M 165.807 22.750 C 164.981 23.712, 164.032 24.986, 163.699 25.579 C 163.366 26.173, 155.634 59.248, 146.517 99.079 C 137.401 138.911, 129.446 172.748, 128.840 174.274 C 128.234 175.799, 127.009 177.473, 126.119 177.993 L 124.500 178.939 142.316 178.970 L 160.131 179 161.929 178.038 C 162.917 177.509, 164.211 175.822, 164.805 174.288 C 165.398 172.755, 173.380 138.650, 182.542 98.500 L 199.201 25.500 201.275 23.250 L 203.349 21 185.329 21 L 167.310 21 165.807 22.750 M 215.248 23.250 L 213.148 25.500 198.030 91.500 C 189.715 127.800, 182.008 161.378, 180.904 166.117 L 178.896 174.735 176.909 176.867 L 174.922 179 192.787 179 L 210.651 179 212.765 176.750 C 213.927 175.512, 215.316 172.552, 215.850 170.172 C 216.385 167.792, 216.975 165.763, 217.161 165.663 C 217.348 165.563, 223.265 164.023, 230.311 162.241 C 268.002 152.705, 296.225 133.932, 304.045 113.196 L 306.193 107.500 306.207 100.324 L 306.222 93.149 304.426 88.324 C 298.632 72.767, 283.122 58.713, 260.503 48.526 L 250.554 44.046 249.912 45.273 C 249.559 45.948, 248.995 47.661, 248.659 49.079 L 248.048 51.658 252.274 53.993 C 254.598 55.277, 259.288 58.523, 262.696 61.207 L 268.892 66.086 272.937 72.143 C 275.161 75.475, 277.886 81.128, 278.991 84.705 L 281 91.211 281 99.424 L 281 107.637 279.454 112.844 C 273.906 131.526, 255.118 147.322, 228 156.106 L 219.500 158.859 219.236 157.679 C 218.785 155.663, 248.953 25.767, 250.263 24.087 C 250.943 23.214, 251.950 22.169, 252.500 21.765 C 253.050 21.361, 245.366 21.024, 235.424 21.015 L 217.349 21 215.248 23.250" stroke="none" fill="#fbfafa" fill-rule="evenodd"/></svg>